<svg xmlns="http://www.w3.org/2000/svg" xmlns:xlink="http://www.w3.org/1999/xlink" width="864" zoomAndPan="magnify" viewBox="0 0 648 287.999989" height="384" preserveAspectRatio="xMidYMid meet" version="1.0"><defs><filter x="0%" y="0%" width="100%" height="100%" id="dfa98f7887"><feColorMatrix values="0 0 0 0 1 0 0 0 0 1 0 0 0 0 1 0 0 0 1 0" color-interpolation-filters="sRGB"/></filter><mask id="c20fccef76"><g filter="url(#dfa98f7887)"><rect x="-64.8" width="777.6" fill="#000000" y="-28.799999" height="345.599986" fill-opacity="0.09"/></g></mask><clipPath id="1e90c1c30f"><path d="M 48.585938 108.605469 L 127.574219 108.605469 L 127.574219 197 L 48.585938 197 Z M 48.585938 108.605469 " clip-rule="nonzero"/></clipPath><clipPath id="a79948446c"><path d="M 153.605469 113.449219 L 205 113.449219 L 205 175.105469 L 153.605469 175.105469 Z M 153.605469 113.449219 " clip-rule="nonzero"/></clipPath><clipPath id="a2be92f3f0"><path d="M 184.9375 0.707031 L 205 0.707031 L 205 29.332031 L 184.9375 29.332031 Z M 184.9375 0.707031 " clip-rule="nonzero"/></clipPath><clipPath id="74458f7f8f"><rect x="0" width="205" y="0" height="197"/></clipPath><mask id="f8ac8cda8a"><g filter="url(#dfa98f7887)"><rect x="-64.8" width="777.6" fill="#000000" y="-28.799999" height="345.599986" fill-opacity="0.09"/></g></mask><clipPath id="302b5c3d08"><path d="M 22.726562 64.21875 L 101.710938 64.21875 L 101.710938 155.816406 L 22.726562 155.816406 Z M 22.726562 64.21875 " clip-rule="nonzero"/></clipPath><clipPath id="6e909957f9"><path d="M 0 0 L 28 0 L 28 53 L 0 53 Z M 0 0 " clip-rule="nonzero"/></clipPath><clipPath id="afd5429076"><path d="M 128 69.0625 L 179.328125 69.0625 L 179.328125 130.71875 L 128 130.71875 Z M 128 69.0625 " clip-rule="nonzero"/></clipPath><clipPath id="0c7e3d6dfd"><path d="M 115 0 L 142 0 L 142 12 L 115 12 Z M 115 0 " clip-rule="nonzero"/></clipPath><clipPath id="4b36de80b8"><path d="M 18 0 L 30 0 L 30 10 L 18 10 Z M 18 0 " clip-rule="nonzero"/></clipPath><clipPath id="5049879ccd"><rect x="0" width="180" y="0" height="157"/></clipPath><clipPath id="5a0a65f123"><path d="M 55.355469 33.289062 L 593 33.289062 L 593 255 L 55.355469 255 Z M 55.355469 33.289062 " clip-rule="nonzero"/></clipPath><clipPath id="9701d8288d"><path d="M 54.605469 56.539062 L 54.605469 231.460938 C 54.605469 244.71875 65.347656 255.460938 78.605469 255.460938 L 569.394531 255.460938 C 582.652344 255.460938 593.394531 244.71875 593.394531 231.460938 L 593.394531 56.539062 C 593.394531 43.28125 582.652344 32.539062 569.394531 32.539062 L 78.605469 32.539062 C 65.347656 32.539062 54.605469 43.28125 54.605469 56.539062 Z M 54.605469 56.539062 " clip-rule="nonzero"/></clipPath><clipPath id="0a53e63663"><path d="M 79.503906 33.4375 L 568.496094 33.4375 C 581.75 33.4375 592.496094 44.183594 592.496094 57.4375 L 592.496094 230.5625 C 592.496094 243.816406 581.75 254.5625 568.496094 254.5625 L 79.503906 254.5625 C 66.25 254.5625 55.503906 243.816406 55.503906 230.5625 L 55.503906 57.4375 C 55.503906 44.183594 66.25 33.4375 79.503906 33.4375 Z M 79.503906 33.4375 " clip-rule="nonzero"/></clipPath><clipPath id="4cb540e0db"><path d="M 54.605469 32.539062 L 593.101562 32.539062 L 593.101562 255.289062 L 54.605469 255.289062 Z M 54.605469 32.539062 " clip-rule="nonzero"/></clipPath><clipPath id="694f3d6327"><path d="M 54.605469 56.539062 L 54.605469 231.460938 C 54.605469 244.71875 65.347656 255.460938 78.605469 255.460938 L 569.394531 255.460938 C 582.652344 255.460938 593.394531 244.71875 593.394531 231.460938 L 593.394531 56.539062 C 593.394531 43.28125 582.652344 32.539062 569.394531 32.539062 L 78.605469 32.539062 C 65.347656 32.539062 54.605469 43.28125 54.605469 56.539062 Z M 54.605469 56.539062 " clip-rule="nonzero"/></clipPath><clipPath id="5d5c2861d0"><path d="M 54.605469 56.535156 L 54.605469 231.453125 C 54.605469 244.707031 65.347656 255.453125 78.601562 255.453125 L 569.386719 255.453125 C 582.640625 255.453125 593.386719 244.707031 593.386719 231.453125 L 593.386719 56.535156 C 593.386719 43.28125 582.640625 32.539062 569.386719 32.539062 L 78.601562 32.539062 C 65.347656 32.539062 54.605469 43.28125 54.605469 56.535156 Z M 54.605469 56.535156 " clip-rule="nonzero"/></clipPath></defs><rect x="-64.8" width="777.6" fill="#ffffff" y="-28.799999" height="345.599986" fill-opacity="1"/><rect x="-64.8" width="777.6" fill="#e5d9cd" y="-28.799999" height="345.599986" fill-opacity="1"/><g mask="url(#c20fccef76)"><g transform="matrix(1, 0, 0, 1, 443, 91)"><g clip-path="url(#74458f7f8f)"><g clip-path="url(#1e90c1c30f)"><path fill="#000000" d="M 77.757812 120.308594 C 76.003906 116.355469 73.363281 113.222656 70.898438 112.03125 C 70.300781 111.738281 69.722656 111.566406 69.15625 111.980469 C 68.582031 112.40625 68.675781 112.988281 68.773438 113.652344 C 69.15625 116.195312 70.605469 118.226562 71.878906 120.347656 C 73.191406 122.539062 73.558594 122.660156 75.816406 121.621094 C 76.464844 121.320312 77.167969 121.085938 77.757812 120.308594 Z M 93.160156 153.910156 C 94.628906 156.257812 95.105469 158.425781 94.351562 160.878906 C 93.519531 163.582031 94.269531 164.394531 97.144531 164.585938 C 99.824219 164.769531 102.148438 163.667969 104.765625 162.734375 C 103.902344 159.609375 106.042969 156.625 104.835938 153.296875 C 100.964844 153.835938 97.175781 152.324219 93.160156 153.910156 Z M 73.257812 149.691406 C 73.171875 149.410156 73.097656 149.113281 72.976562 148.832031 C 72.851562 148.550781 72.738281 148.226562 72.523438 148.023438 C 69.824219 145.441406 69.832031 142.449219 70.960938 139.152344 C 72.007812 136.09375 70.867188 133.402344 67.757812 131.238281 C 66.652344 132.976562 65.4375 134.652344 64.472656 136.464844 C 63.457031 138.378906 62.53125 140.367188 61.816406 142.410156 C 59.34375 149.46875 59.957031 156.246094 64.011719 162.613281 C 64.703125 163.695312 65.304688 164.953125 66.902344 165.019531 C 67.15625 162.566406 67.15625 162.566406 65.757812 160.328125 C 63.9375 157.421875 64.355469 155.644531 67.316406 153.945312 C 68.308594 153.378906 69.355469 152.921875 70.382812 152.417969 C 71.609375 151.8125 72.710938 151.074219 73.257812 149.691406 Z M 88.472656 123.496094 C 89.203125 124.507812 89.808594 125.457031 90.523438 126.316406 C 93.863281 130.339844 94.476562 134.585938 91.800781 139.21875 C 91.1875 140.28125 90.707031 141.484375 90.472656 142.679688 C 90.070312 144.734375 91.472656 146.890625 92.9375 146.441406 C 94.855469 145.855469 96.601562 146.351562 98.421875 146.542969 C 100.011719 146.707031 101.710938 146.734375 102.5 145.03125 C 103.746094 142.355469 105.851562 140.648438 108.261719 139.125 C 109.992188 138.03125 110.109375 137.324219 109.128906 135.507812 C 106.003906 129.726562 101.371094 125.578125 95.238281 123.210938 C 93.15625 122.40625 90.898438 121.554688 88.472656 123.496094 Z M 67.640625 118.136719 C 66.296875 117.582031 65.710938 118.476562 65.0625 119.066406 C 62.90625 121.03125 60.953125 123.171875 59.175781 125.492188 C 54.21875 131.96875 51.597656 139.238281 51.558594 147.402344 C 51.527344 154.960938 54.074219 161.835938 57.328125 168.496094 C 58.003906 169.878906 59.09375 171.03125 60.148438 172.195312 C 63.113281 175.472656 67.035156 177.230469 70.941406 178.871094 C 76.890625 181.359375 83.105469 182.136719 89.542969 180.964844 C 92.933594 180.351562 96.238281 179.519531 99.390625 178.144531 C 100.332031 177.734375 101.160156 177.558594 101.957031 178.367188 C 103.488281 179.921875 105.097656 181.410156 106.535156 183.046875 C 107.625 184.289062 107.402344 185.199219 105.964844 186.050781 C 104.175781 187.109375 102.320312 188.050781 100.535156 189.113281 C 97.980469 190.636719 95.398438 192.148438 93.445312 194.425781 C 95.738281 197.609375 96.070312 197.746094 98.949219 195.777344 C 106.722656 190.457031 114.46875 185.089844 122.183594 179.6875 C 124.5 178.0625 124.46875 177.640625 122.558594 174.941406 C 121.65625 174.914062 121.078125 175.558594 120.386719 175.988281 C 118.269531 177.300781 116.175781 178.65625 113.996094 179.867188 C 110.042969 182.058594 109.90625 181.945312 107.160156 178.445312 C 105.964844 176.921875 105.175781 175.035156 103.53125 173.992188 C 102.394531 173.972656 101.640625 174.566406 100.832031 175.019531 C 95.175781 178.203125 88.960938 179.679688 82.609375 179.402344 C 75.335938 179.082031 68.636719 176.699219 63.089844 171.550781 C 60.203125 168.871094 57.964844 165.910156 56.480469 162.285156 C 53.875 155.914062 52.902344 149.421875 53.949219 142.539062 C 55.304688 133.664062 59.0625 126.230469 66.003906 120.445312 C 66.683594 119.875 67.597656 119.410156 67.640625 118.136719 Z M 69.605469 167.503906 C 77.527344 175.789062 97.890625 172.128906 101.132812 167.289062 C 99.691406 166.882812 98.234375 167.144531 96.796875 167.109375 C 92.042969 166.992188 90.242188 164.589844 91.726562 160.0625 C 92.1875 158.644531 92.207031 157.609375 91.191406 156.371094 C 89.675781 154.53125 89.996094 152.941406 91.945312 151.6875 C 93.066406 150.964844 94.253906 150.269531 95.683594 150.277344 C 98.386719 150.292969 101.097656 150.183594 103.792969 150.339844 C 106.886719 150.519531 108.355469 152.480469 107.953125 155.59375 C 107.75 157.199219 107.519531 158.800781 107.296875 160.40625 C 111.433594 154.523438 111.839844 147.980469 111.316406 141 C 108.453125 142.15625 106.527344 143.636719 105.140625 146.015625 C 103.410156 148.972656 100.839844 150.414062 97.238281 149.183594 C 96.066406 148.78125 94.796875 148.953125 93.546875 149.25 C 90.875 149.890625 89.734375 149.308594 88.570312 146.878906 C 87.015625 143.636719 87.722656 140.566406 89.546875 137.742188 C 91.355469 134.941406 91.058594 132.269531 89.5625 129.542969 C 89.164062 128.820312 88.726562 128.089844 88.171875 127.488281 C 86.824219 126.015625 85.730469 124.433594 85.75 122.203125 C 79.390625 122.238281 74.363281 124.308594 70.433594 128.625 C 70.460938 129.035156 70.4375 129.152344 70.480469 129.238281 C 70.613281 129.515625 70.734375 129.808594 70.921875 130.046875 C 73.78125 133.609375 75.050781 137.410156 73 141.867188 C 72.453125 143.058594 72.746094 144.292969 73.714844 145.316406 C 74.210938 145.839844 74.609375 146.457031 74.996094 147.070312 C 76.417969 149.308594 76.25 150.699219 74.550781 152.648438 C 73.054688 154.367188 71.023438 155.167969 69.070312 156.121094 C 67.816406 156.734375 67.261719 157.691406 68.132812 158.863281 C 70.132812 161.554688 70.660156 164.449219 69.605469 167.503906 Z M 99.03125 172.710938 C 97.734375 172.605469 96.617188 173.257812 95.429688 173.601562 C 85.339844 176.503906 75.730469 176.109375 67.011719 169.535156 C 61.183594 165.140625 58.144531 159.265625 57.765625 152.003906 C 57.398438 144.976562 60.007812 138.859375 63.46875 132.949219 C 65.4375 129.582031 68.28125 127.011719 71.046875 124.191406 C 70.554688 123.113281 70.558594 121.945312 69.550781 120.960938 C 66.886719 122.476562 64.785156 124.523438 63.121094 126.855469 C 56.773438 135.738281 54.519531 145.457031 57.21875 156.242188 C 59.378906 164.902344 64.644531 171.1875 72.4375 174.84375 C 80.660156 178.703125 89.25 177.144531 97.566406 174.242188 C 98.226562 174.011719 98.785156 173.449219 99.023438 172.703125 C 99.277344 172.578125 99.949219 172.988281 99.679688 172.253906 C 99.625 172.113281 99.15625 172.398438 99.03125 172.710938 Z M 104.550781 170.121094 C 106.527344 172.714844 108.234375 175.667969 110.695312 178.371094 C 113.804688 177.175781 116.507812 175.273438 119.242188 173.457031 C 123.765625 170.445312 123.738281 170.40625 126.164062 175.292969 C 127.753906 178.5 127.671875 178.980469 124.640625 181.140625 C 116.707031 186.785156 108.746094 192.394531 100.785156 198.003906 C 100.023438 198.539062 99.222656 199.03125 98.386719 199.4375 C 95.902344 200.65625 94.851562 200.464844 92.839844 198.515625 C 92.167969 197.867188 91.46875 197.234375 90.878906 196.515625 C 89.488281 194.8125 89.566406 193.6875 91.292969 192.285156 C 94.023438 190.058594 96.808594 187.894531 99.984375 186.300781 C 101.179688 185.703125 102.371094 185.082031 103.265625 184.0625 C 103.21875 182.929688 102.269531 182.492188 101.695312 181.800781 C 100.855469 180.792969 99.890625 180.503906 98.675781 181.207031 C 94.59375 183.582031 89.914062 183.6875 85.445312 184.273438 C 82.878906 184.613281 80.140625 183.652344 77.476562 183.273438 C 71.828125 182.464844 66.789062 180.175781 61.902344 177.296875 C 58.425781 175.246094 55.972656 172.378906 54.207031 168.957031 C 50.796875 162.34375 48.617188 155.21875 48.636719 147.816406 C 48.660156 139.53125 50.910156 131.6875 56.121094 124.910156 C 58.601562 121.679688 61.398438 118.773438 64.449219 116.109375 C 65.46875 115.21875 65.96875 114.421875 66.011719 113.019531 C 66.128906 109.304688 68.957031 107.867188 72.320312 109.738281 C 75.011719 111.238281 77.175781 113.40625 78.589844 116.085938 C 79.945312 118.660156 81.773438 119.417969 84.574219 119.195312 C 89.589844 118.792969 94.507812 119.242188 99.113281 121.648438 C 105.542969 125.003906 110.109375 130.125 113.15625 136.542969 C 114.628906 139.640625 114.75 143.152344 114.566406 146.605469 C 114.226562 153.015625 112.878906 159.097656 109.070312 164.453125 C 108.277344 165.570312 107.316406 166.5 106.414062 167.5 C 105.730469 168.25 104.753906 168.792969 104.550781 170.121094 " fill-opacity="1" fill-rule="nonzero"/></g><path fill="#000000" d="M 13.257812 52.65625 C 14.035156 54.015625 14.875 53.699219 15.679688 53.066406 C 18.628906 50.75 21.726562 48.675781 25.117188 47.042969 C 25.539062 46.839844 26.085938 46.5625 25.882812 45.875 C 23.691406 46.082031 15.183594 50.605469 13.257812 52.65625 Z M 44.382812 72.359375 C 44.644531 71.210938 44.023438 70.71875 43.65625 70.121094 C 40.773438 65.457031 37.019531 61.402344 34.234375 56.671875 C 32.917969 54.4375 31.425781 52.339844 29.554688 50.53125 C 28.820312 49.820312 28.117188 49.089844 27.121094 49.28125 C 26.585938 49.835938 26.707031 50.300781 26.960938 50.578125 C 33.085938 57.3125 38.324219 64.714844 43.402344 72.238281 C 43.507812 72.394531 43.964844 72.316406 44.382812 72.359375 Z M 37.59375 83.871094 C 40.710938 85.554688 43.558594 87.707031 46.410156 89.726562 C 49.394531 87.996094 49.542969 87.972656 49.296875 86.445312 C 48.816406 83.484375 48.1875 80.546875 47.546875 77.617188 C 47.277344 76.394531 46.542969 75.59375 45.042969 75.816406 C 44.230469 77.1875 44.738281 79.195312 43.039062 80.167969 C 41.902344 80.441406 40.9375 79.175781 39.585938 79.855469 C 38.710938 80.820312 38.183594 82.15625 37.59375 83.871094 Z M 35.144531 81.460938 C 37.042969 79.335938 37.09375 79.121094 35.992188 77.117188 C 34.289062 74.023438 32.398438 71.035156 30.089844 68.359375 C 26.765625 64.511719 23.480469 60.640625 20.445312 56.5625 C 19.859375 55.769531 19.257812 54.875 18.183594 54.644531 C 16.890625 55.457031 17.164062 56.339844 17.871094 57.292969 C 22.203125 63.125 25.800781 69.441406 29.90625 75.425781 C 31.417969 77.625 33.09375 79.710938 35.144531 81.460938 Z M 41.210938 77.089844 C 42.464844 75.875 41.746094 74.960938 41.214844 74.101562 C 40.289062 72.601562 39.230469 71.183594 38.324219 69.667969 C 34.683594 63.59375 30.25 58.117188 25.488281 52.898438 C 23.484375 50.703125 22.953125 50.800781 20.988281 53.238281 C 23.894531 56.46875 26.125 60.261719 29.195312 63.375 C 32.496094 66.722656 35.289062 70.449219 37.53125 74.566406 C 38.355469 76.082031 39.464844 76.925781 41.210938 77.089844 Z M 24.367188 42.765625 C 23.625 40.683594 22.796875 38.90625 21.421875 37.472656 C 20.160156 36.15625 18.703125 35.222656 16.738281 35.765625 C 14.347656 36.429688 11.960938 37.101562 9.566406 37.75 C 8.234375 38.113281 7.105469 38.832031 6.101562 39.746094 C 4.59375 41.117188 4.40625 42.449219 5.546875 44.121094 C 6.78125 45.921875 8.449219 47.339844 10.0625 48.785156 C 11.0625 49.6875 12.175781 49.886719 13.417969 48.945312 C 14.898438 47.820312 16.605469 47.066406 18.316406 46.3125 C 20.386719 45.402344 22.363281 44.261719 24.367188 42.765625 Z M 21.019531 33.375 C 23.570312 35.117188 25.335938 37.527344 26.53125 40.320312 C 27.96875 43.683594 29.789062 46.765625 32.296875 49.433594 C 32.863281 50.035156 33.457031 50.632812 33.925781 51.3125 C 38.75 58.3125 43.511719 65.359375 48.386719 72.332031 C 50.582031 75.472656 50.59375 79.179688 51.410156 82.675781 C 52.191406 86 52.804688 89.359375 53.488281 92.703125 C 53.589844 93.210938 53.730469 93.71875 53.753906 94.230469 C 53.796875 95.171875 53.820312 96.128906 52.726562 96.609375 C 51.777344 97.023438 50.980469 96.957031 50.160156 96.222656 C 46.921875 93.308594 43.285156 90.917969 39.757812 88.386719 C 39.507812 88.207031 39.335938 87.882812 39.066406 87.761719 C 31.8125 84.460938 28.273438 77.738281 24.109375 71.59375 C 22.019531 68.503906 19.992188 65.367188 17.890625 62.28125 C 16.488281 60.226562 14.792969 58.433594 13.03125 56.65625 C 9.753906 53.351562 6.96875 49.589844 3.746094 46.207031 C 0.5625 42.863281 1.414062 39.015625 5.546875 36.613281 C 9.011719 34.601562 13.035156 33.535156 17.042969 32.832031 C 18.351562 32.605469 19.753906 32.621094 21.019531 33.375 " fill-opacity="1" fill-rule="nonzero"/><path fill="#000000" d="M 165.011719 110.164062 C 163.542969 109.480469 162.167969 109.851562 160.84375 109.726562 C 160.085938 109.652344 159.273438 109.5 159.207031 108.617188 C 159.125 107.515625 160.03125 107.332031 160.898438 107.253906 C 162.425781 107.117188 163.996094 107.496094 165.578125 106.9375 C 165.835938 105.476562 166.082031 104.089844 166.316406 102.746094 C 164.875 101.902344 163.46875 102.445312 162.171875 102.160156 C 160.332031 101.757812 159.882812 101.214844 159.921875 99.25 C 161.941406 98.949219 163.933594 100.429688 166.15625 99.398438 C 166.515625 98.535156 167.179688 97.605469 166.769531 96.324219 C 165.429688 95.953125 164.074219 95.722656 163.039062 94.792969 C 162.492188 94.300781 161.90625 93.75 162.464844 92.945312 C 162.882812 92.339844 163.476562 92.390625 164.128906 92.660156 C 164.945312 93.003906 165.691406 93.789062 166.855469 93.148438 C 167.328125 91.632812 166.929688 90.65625 165.117188 90.429688 C 164.300781 90.324219 163.503906 89.972656 162.6875 89.933594 C 160.113281 89.816406 157.769531 88.289062 155.023438 88.628906 C 153.90625 91.609375 153.605469 94.695312 153.042969 97.726562 C 151.699219 104.9375 149.941406 112.066406 148.882812 119.332031 C 148.105469 124.644531 147.121094 129.933594 146.578125 135.265625 C 146.222656 138.753906 145.589844 142.234375 145.722656 145.785156 C 145.777344 147.179688 146.3125 148.015625 147.582031 148.207031 C 149.832031 148.546875 152.105469 148.894531 154.371094 148.910156 C 156.78125 148.925781 157.140625 148.242188 156.734375 145.539062 C 154.984375 144.566406 152.902344 144.753906 151.074219 144.003906 C 150.355469 143.703125 149.644531 143.367188 149.886719 142.480469 C 150.109375 141.664062 150.886719 141.476562 151.664062 141.578125 C 152.167969 141.648438 152.667969 141.96875 153.160156 141.953125 C 154.78125 141.898438 156.285156 143.132812 157.960938 142.523438 C 158.320312 141.425781 158.652344 140.46875 158.652344 139.789062 C 157.421875 137.609375 153.800781 139.65625 153.320312 136.335938 C 155.421875 135.34375 157.226562 136.324219 159.046875 136.40625 C 160.402344 135.097656 160.203125 133.414062 160.578125 131.851562 C 158.785156 131.125 156.570312 132.179688 155.320312 130.117188 C 157.140625 127.8125 159.828125 129.929688 161.925781 128.492188 C 161.792969 127.21875 163.046875 126.007812 162.480469 124.464844 C 161.515625 123.429688 160.226562 123.574219 159.007812 123.398438 C 157.152344 123.136719 156.789062 122.597656 156.835938 120.480469 C 158.929688 120.042969 161.035156 121.894531 163.140625 120.570312 C 163.988281 119.179688 164.183594 117.714844 163.679688 116.238281 C 162.308594 115.566406 160.949219 115.492188 159.636719 115.203125 C 158.75 115.007812 158.167969 114.316406 158.488281 113.335938 C 158.753906 112.527344 159.410156 112.347656 160.257812 112.585938 C 160.945312 112.777344 161.683594 112.824219 162.402344 112.902344 C 164.28125 113.105469 165.066406 112.1875 165.011719 110.164062 Z M 153.03125 151.476562 C 150.929688 151.738281 148.589844 151.195312 146.253906 150.75 C 143.566406 150.238281 142.804688 149.21875 142.769531 146.5 C 142.734375 143.800781 143.222656 141.136719 143.492188 138.476562 C 144.863281 124.910156 147.078125 111.472656 149.996094 98.144531 C 150.746094 94.722656 151.1875 91.226562 152.050781 87.824219 C 152.8125 84.832031 153.304688 84.574219 156.421875 85.355469 C 159.835938 86.210938 163.257812 87.039062 166.675781 87.886719 C 169.574219 88.605469 170.21875 89.214844 170.03125 92.148438 C 169.738281 96.78125 169.34375 101.421875 168.703125 106.019531 C 167.886719 111.84375 166.671875 117.609375 165.84375 123.429688 C 165.160156 128.273438 163.355469 132.816406 162.355469 137.570312 C 161.632812 141.003906 160.472656 144.328125 160.078125 147.851562 C 159.726562 151.007812 159.132812 151.386719 155.839844 151.472656 C 155.011719 151.492188 154.179688 151.476562 153.03125 151.476562 " fill-opacity="1" fill-rule="nonzero"/><g clip-path="url(#a79948446c)"><path fill="#000000" d="M 162.179688 172.546875 C 165.089844 170.292969 166.804688 168.109375 168.59375 165.96875 C 176.035156 157.050781 183.59375 148.234375 190.589844 138.957031 C 194.15625 134.230469 197.320312 129.234375 200.613281 124.320312 C 201.835938 122.492188 201.734375 122.109375 200.132812 120.601562 C 199.230469 119.757812 198.203125 119.035156 197.203125 118.292969 C 194.96875 116.640625 194.53125 116.71875 193.023438 118.933594 C 191.550781 121.089844 191.59375 121.402344 193.570312 122.96875 C 193.976562 123.292969 194.410156 123.589844 194.773438 123.957031 C 195.347656 124.539062 196.109375 125.140625 195.285156 126.046875 C 194.621094 126.78125 193.960938 126.265625 193.320312 125.941406 C 192.058594 125.304688 191.246094 123.894531 189.476562 123.710938 C 188.761719 124.886719 187.257812 125.496094 187.105469 126.566406 C 187.46875 129.386719 191.417969 129.527344 190.558594 132.726562 C 188.484375 132.71875 187.460938 131.269531 186.148438 130.339844 C 184.695312 129.3125 183.570312 129.769531 183.285156 131.484375 C 183.140625 132.351562 183.296875 133.105469 183.929688 133.777344 C 184.550781 134.441406 185.441406 134.921875 185.628906 136.136719 C 183.585938 138.789062 182.496094 134.894531 180.5625 135.382812 C 179.191406 136.210938 178.445312 137.789062 177.714844 139.09375 C 177.917969 141.546875 181.4375 140.945312 181.328125 143.492188 C 180.148438 144.363281 179.117188 144.128906 178.085938 143.46875 C 177.472656 143.074219 176.863281 142.675781 176.230469 142.328125 C 175.722656 142.046875 175.199219 142.097656 174.835938 142.566406 C 174.472656 143.035156 174.53125 143.601562 174.941406 143.972656 C 175.625 144.597656 176.414062 145.105469 177.132812 145.695312 C 177.773438 146.226562 178.566406 146.796875 177.878906 147.742188 C 177.191406 148.679688 176.390625 148.054688 175.664062 147.695312 C 174.574219 147.152344 173.789062 146.019531 172.351562 146.011719 C 171.125 146.964844 170.117188 148.101562 169.660156 149.53125 C 170.074219 151.492188 172.871094 151.832031 172.539062 154.09375 C 171.5625 154.898438 170.753906 154.570312 169.925781 153.988281 C 169.109375 153.414062 168.660156 152.285156 167.445312 152.304688 C 165.285156 154.902344 165.296875 154.890625 167.375 157.121094 C 168.050781 157.84375 169.128906 158.382812 168.6875 159.820312 C 166.269531 161.214844 165.574219 158.03125 163.667969 157.789062 C 163.308594 158.101562 162.886719 158.398438 162.554688 158.777344 C 160.828125 160.753906 160.988281 161.757812 163.207031 163.265625 C 163.855469 163.707031 164.847656 163.769531 164.976562 164.835938 C 164.296875 166.1875 163.429688 166.746094 162.058594 165.609375 C 161.5 165.148438 160.890625 164.734375 160.261719 164.375 C 159.058594 163.679688 158.046875 164.132812 157.714844 165.484375 C 157.441406 166.589844 157.828125 167.480469 158.585938 168.316406 C 159.773438 169.621094 160.878906 171.003906 162.179688 172.546875 Z M 205.136719 122.25 C 205.160156 122.933594 204.691406 123.371094 204.371094 123.902344 C 198.710938 133.195312 192.347656 141.988281 185.359375 150.335938 C 179.445312 157.394531 173.582031 164.488281 167.695312 171.566406 C 167.5625 171.726562 167.414062 171.871094 167.273438 172.027344 C 163.648438 176.011719 162.628906 176.042969 158.832031 172.261719 C 157.582031 171.015625 156.335938 169.765625 155.144531 168.464844 C 153.648438 166.839844 153.539062 166.472656 154.804688 164.730469 C 159.839844 157.777344 164.933594 150.867188 170.035156 143.960938 C 172.003906 141.300781 174.203125 138.796875 176.027344 136.046875 C 179.582031 130.671875 184.015625 126.019531 188.039062 121.03125 C 189.597656 119.097656 190.796875 116.890625 192.578125 115.132812 C 194.199219 113.539062 194.957031 113.242188 196.636719 114.414062 C 199.261719 116.242188 201.984375 117.988281 204.175781 120.378906 C 204.671875 120.917969 205.183594 121.4375 205.136719 122.25 " fill-opacity="1" fill-rule="nonzero"/></g><path fill="#000000" d="M 74.332031 61.703125 C 79.894531 65.425781 84.367188 64.496094 89.164062 58.75 C 84.003906 59.351562 79.613281 61.019531 74.332031 61.703125 Z M 116.59375 76.886719 C 116.6875 73.71875 116.496094 70.542969 114.144531 67.9375 C 109.707031 63.027344 101.851562 61.875 95.613281 67.886719 C 94.640625 68.820312 93.816406 69.285156 92.523438 69.539062 C 88.898438 70.246094 86.214844 72.222656 85.496094 76.0625 C 85.15625 77.878906 84.59375 79.671875 84.679688 81.570312 C 84.863281 85.621094 86.203125 88.984375 89.847656 91.238281 C 91.65625 92.359375 93.636719 92.808594 95.621094 93.40625 C 103.777344 95.847656 118.230469 88.253906 116.59375 76.886719 Z M 90.738281 62.226562 C 89.394531 62.832031 88.476562 63.664062 87.46875 64.371094 C 82.902344 67.574219 79.105469 67.640625 74.046875 65.039062 C 73.011719 64.507812 72.214844 63.671875 71.640625 62.660156 C 70.601562 60.835938 71.222656 59.207031 73.289062 59.023438 C 77.453125 58.65625 81.4375 57.554688 85.449219 56.519531 C 85.746094 56.441406 86.078125 56.367188 86.375 56.414062 C 89.503906 56.914062 91.789062 56.023438 92.671875 52.710938 C 92.714844 52.566406 93 52.480469 93.292969 52.285156 C 95.121094 52.769531 94.777344 54.164062 94.425781 55.441406 C 93.667969 58.207031 93.976562 60.988281 94.164062 63.773438 C 94.171875 63.925781 94.402344 64.066406 94.648438 64.347656 C 97.007812 63.261719 99.207031 61.753906 101.886719 61.167969 C 110.191406 59.34375 118.46875 64.707031 119.488281 73.101562 C 120.023438 77.503906 120.023438 81.980469 117.839844 86.171875 C 116.484375 88.769531 114.382812 90.515625 112.113281 92.179688 C 105.484375 97.050781 98.289062 98.257812 90.703125 94.929688 C 85.910156 92.832031 81.6875 88.445312 82.15625 82.414062 C 82.363281 79.742188 81.941406 77.015625 82.96875 74.425781 C 84.203125 71.3125 86.09375 68.851562 89.375 67.632812 C 91.769531 66.742188 91.894531 66.425781 91.320312 63.957031 C 91.203125 63.460938 90.996094 62.980469 90.738281 62.226562 " fill-opacity="1" fill-rule="nonzero"/><path fill="#000000" d="M 172.519531 25.4375 C 171.585938 23.933594 172.300781 22.960938 173.425781 22.25 C 174.9375 21.292969 176.273438 20.140625 177.335938 18.734375 C 178.976562 16.558594 178.320312 14.570312 175.789062 13.628906 C 175.003906 13.339844 174.21875 13.097656 173.367188 13.144531 C 170.320312 13.316406 167.429688 14.097656 164.777344 15.578125 C 162.976562 16.589844 162.671875 18.296875 163.539062 20.375 C 165.730469 25.640625 168.558594 30.585938 171.199219 35.625 C 172.589844 38.277344 173.820312 38.667969 176.5 37.453125 C 179.890625 35.910156 181.875 33.027344 183.679688 29.953125 C 184.742188 28.144531 184.824219 26.445312 183.476562 24.78125 C 182.292969 23.308594 180.832031 23.0625 178.4375 23.78125 C 176.492188 24.363281 174.671875 25.4375 172.519531 25.4375 Z M 179.972656 20.414062 C 186.472656 21.253906 189.003906 26.433594 185.6875 31.902344 C 183.871094 34.902344 181.914062 37.824219 178.5625 39.464844 C 174.28125 41.550781 170.671875 40.996094 168.519531 36.40625 C 166.0625 31.15625 163.203125 26.101562 160.953125 20.75 C 159.5625 17.441406 160.828125 14.015625 164.257812 12.609375 C 166.9375 11.507812 169.730469 10.476562 172.609375 10.320312 C 178.894531 9.980469 182.65625 14.480469 180.105469 19.636719 C 180.019531 19.8125 180.03125 20.039062 179.972656 20.414062 " fill-opacity="1" fill-rule="nonzero"/><path fill="#000000" d="M 150.765625 53.460938 C 151.59375 53.265625 151.964844 52.878906 152.054688 52.355469 C 152.292969 51.011719 152.011719 49.710938 151.75 48.378906 C 151.023438 44.652344 153.519531 42.300781 157.175781 43.15625 C 157.878906 43.324219 158.554688 43.605469 159.238281 43.851562 C 160.742188 44.398438 162.429688 44.882812 163.59375 43.574219 C 164.636719 42.398438 164.039062 40.820312 163.507812 39.445312 C 161 33 155.644531 29.539062 149.828125 26.652344 C 148.21875 25.855469 146.261719 26.847656 145.453125 28.53125 C 144.921875 29.640625 144.652344 30.84375 144.574219 32.117188 C 144.1875 38.550781 145.550781 44.636719 148.050781 50.519531 C 148.601562 51.816406 149.496094 52.761719 150.765625 53.460938 Z M 155.519531 45.539062 C 154.105469 47.152344 154.574219 48.648438 154.945312 50.152344 C 155.277344 51.480469 155.421875 52.777344 154.515625 54.007812 C 152.238281 57.113281 148.164062 56.839844 146.460938 53.253906 C 144.363281 48.847656 142.933594 44.195312 142.207031 39.355469 C 141.746094 36.296875 141.429688 33.269531 142.113281 30.128906 C 143.398438 24.25 148.277344 22.027344 153.320312 25.257812 C 157.710938 28.066406 161.925781 31.082031 164.757812 35.589844 C 166.144531 37.804688 167.1875 40.171875 167.074219 42.882812 C 166.984375 45.058594 165.925781 46.265625 163.800781 46.765625 C 161.941406 47.207031 160.144531 47.253906 158.351562 46.453125 C 157.511719 46.082031 156.59375 45.878906 155.519531 45.539062 " fill-opacity="1" fill-rule="nonzero"/><g clip-path="url(#a2be92f3f0)"><path fill="#000000" d="M 202.660156 19.613281 C 201.15625 20.269531 200.601562 21.351562 199.683594 22.019531 C 196.476562 24.363281 193.085938 23.273438 191.820312 19.5625 C 190.792969 16.550781 190.648438 13.460938 190.84375 10.347656 C 191.007812 7.714844 192.359375 6.503906 195.046875 6.300781 C 195.855469 6.242188 196.722656 6.535156 197.4375 5.917969 C 197.457031 3.796875 196.441406 2.941406 194.25 3.226562 C 191.339844 3.605469 188.5 6.105469 187.9375 9.359375 C 187.035156 14.578125 187.929688 19.542969 191.34375 23.746094 C 194.234375 27.308594 198.828125 27.066406 201.445312 23.386719 C 202.167969 22.367188 202.558594 21.21875 202.660156 19.613281 Z M 194.804688 0.707031 C 197.507812 0.742188 199.609375 1.976562 200.292969 3.929688 C 201.277344 6.75 199.941406 8.953125 197.023438 9.320312 C 193.269531 9.792969 192.882812 10.210938 193.390625 13.898438 C 193.628906 15.628906 194.03125 17.359375 194.558594 19.027344 C 195.078125 20.671875 195.855469 20.890625 197.398438 20.191406 C 198.191406 19.832031 198.738281 19.257812 199.195312 18.53125 C 199.699219 17.726562 200.414062 17.136719 201.296875 16.746094 C 203.25 15.878906 204.917969 16.695312 205.132812 18.839844 C 205.488281 22.414062 204.152344 25.28125 201.199219 27.40625 C 198.265625 29.511719 195.351562 29.59375 192.21875 27.757812 C 188.402344 25.519531 186.867188 21.910156 185.722656 17.941406 C 184.65625 14.246094 184.730469 10.601562 185.984375 7.003906 C 187.253906 3.363281 191.132812 0.65625 194.804688 0.707031 " fill-opacity="1" fill-rule="nonzero"/></g><path fill="#000000" d="M 20.929688 8.089844 C 20.949219 9.542969 21.246094 10.125 22.257812 10.675781 C 23.40625 11.304688 25.515625 10.703125 26.71875 9.40625 C 27.945312 8.089844 28.128906 6.429688 27.21875 5.144531 C 26.707031 4.421875 25.992188 3.996094 25.140625 3.929688 C 23.226562 3.777344 20.90625 6.105469 20.929688 8.089844 Z M 23.347656 13.648438 C 20.296875 13.578125 17.84375 10.972656 17.980469 7.949219 C 18.132812 4.621094 21.601562 1.378906 25.015625 1.378906 C 28.042969 1.378906 30.332031 3.648438 30.304688 6.667969 C 30.261719 11.019531 26.570312 13.320312 23.347656 13.648438 " fill-opacity="1" fill-rule="nonzero"/><path fill="#000000" d="M 82.101562 26.007812 C 74.484375 29.210938 67.941406 34.015625 61.695312 39.226562 C 60.289062 38.542969 60.019531 37.738281 60.871094 36.679688 C 61.324219 36.117188 61.851562 35.597656 62.40625 35.136719 C 67.214844 31.144531 72.308594 27.601562 78 24.957031 C 78.867188 24.554688 79.734375 24.261719 80.707031 24.425781 C 81.417969 24.542969 81.734375 25.015625 82.101562 26.007812 " fill-opacity="1" fill-rule="nonzero"/><path fill="#000000" d="M 96.433594 21.105469 C 95.164062 20.039062 95.230469 19.207031 96.128906 18.5 C 96.6875 18.0625 97.363281 17.730469 98.035156 17.46875 C 103.640625 15.308594 109.398438 13.65625 115.25 12.292969 C 115.953125 12.128906 116.484375 12.21875 116.8125 12.867188 C 117.21875 13.667969 116.890625 14.300781 116.179688 14.6875 C 115.640625 14.980469 115.035156 15.179688 114.433594 15.316406 C 111.300781 16.027344 108.222656 16.894531 105.191406 17.964844 C 102.269531 19 99.273438 19.8125 96.433594 21.105469 " fill-opacity="1" fill-rule="nonzero"/><path fill="#000000" d="M 44.324219 22.414062 C 45.5 22.261719 45.972656 21.578125 45.972656 20.496094 C 45.972656 19.359375 45.652344 18.402344 44.378906 18.207031 C 43.402344 18.054688 42.121094 19.429688 42.285156 20.449219 C 42.472656 21.585938 43.207031 22.25 44.324219 22.414062 Z M 44.222656 24.945312 C 41.8125 24.988281 39.96875 22.902344 39.667969 20.382812 C 39.394531 18.117188 42.449219 15.390625 43.9375 15.304688 C 45.960938 15.1875 48.835938 18.1875 48.9375 20.5 C 49.039062 22.757812 46.769531 24.902344 44.222656 24.945312 " fill-opacity="1" fill-rule="nonzero"/><path fill="#000000" d="M 18.914062 81.949219 C 20.59375 82.453125 20.492188 83.679688 20.15625 84.742188 C 18.847656 88.894531 18.632812 93.234375 17.820312 97.464844 C 17.765625 97.769531 17.808594 98.097656 17.714844 98.386719 C 17.402344 99.292969 16.914062 100.292969 15.839844 100.074219 C 14.625 99.828125 14.921875 98.789062 15.085938 97.8125 C 15.667969 94.371094 16.011719 90.882812 16.695312 87.464844 C 17.082031 85.542969 17.269531 83.417969 18.914062 81.949219 " fill-opacity="1" fill-rule="nonzero"/><path fill="#000000" d="M 25.46875 130.175781 C 23.167969 130.152344 22.472656 129.113281 22.074219 127.9375 C 20.65625 123.738281 19.3125 119.511719 17.976562 115.285156 C 17.707031 114.429688 17.878906 113.640625 18.820312 113.191406 C 20.054688 113.117188 20.359375 114.140625 20.652344 114.957031 C 22.402344 119.839844 24.042969 124.761719 25.46875 130.175781 " fill-opacity="1" fill-rule="nonzero"/><path fill="#000000" d="M 130.449219 10.210938 C 135.285156 9.808594 139.972656 9.882812 144.5625 11.414062 C 145.273438 11.652344 145.828125 12.132812 146.195312 12.78125 C 146.523438 13.355469 146.601562 13.992188 146.179688 14.53125 C 145.726562 15.105469 145 15.117188 144.484375 14.757812 C 141.015625 12.3125 136.964844 12.914062 133.109375 12.527344 C 131.765625 12.390625 130.335938 12.519531 130.449219 10.210938 " fill-opacity="1" fill-rule="nonzero"/><path fill="#000000" d="M 55.839844 43.183594 C 55.777344 44.101562 55.164062 44.671875 54.5 45.171875 C 51.929688 47.113281 49.746094 49.417969 47.746094 51.9375 C 47.054688 52.8125 46.121094 54.367188 44.789062 53.121094 C 43.535156 51.949219 44.894531 50.84375 45.6875 50.015625 C 48.039062 47.550781 50.496094 45.179688 52.910156 42.777344 C 53.355469 42.335938 53.824219 41.921875 54.492188 41.894531 C 55.378906 41.859375 55.84375 42.28125 55.839844 43.183594 " fill-opacity="1" fill-rule="nonzero"/><path fill="#000000" d="M 35.125 142.214844 C 34.980469 142.777344 34.542969 143.3125 33.660156 143.066406 C 32.78125 142.824219 31.902344 142.597656 31.160156 141.953125 C 29.738281 140.722656 28.828125 139.097656 27.640625 137.6875 C 27.121094 137.070312 27.1875 136.328125 27.84375 135.773438 C 28.507812 135.214844 29.28125 135.289062 29.742188 135.949219 C 31.109375 137.90625 32.695312 139.605469 34.722656 140.890625 C 35.070312 141.113281 35.210938 141.535156 35.125 142.214844 " fill-opacity="1" fill-rule="nonzero"/><path fill="#000000" d="M 91.363281 81.996094 C 91.449219 79.5 92.292969 77.875 92.5625 76.105469 C 91.644531 75.484375 90.8125 75.527344 89.878906 76.210938 C 89.816406 78.003906 90.203125 79.710938 91.363281 81.996094 Z M 92.097656 88.011719 C 90.515625 87.289062 89.746094 85.863281 89.109375 84.308594 C 88.007812 81.605469 87.226562 78.832031 87.191406 75.886719 C 87.183594 74.941406 87.148438 73.703125 88.210938 73.519531 C 90.128906 73.183594 92.03125 72.429688 94.019531 72.75 C 95.648438 73.007812 96.464844 74.179688 95.742188 75.699219 C 94.265625 78.804688 93.820312 82.011719 93.960938 85.378906 C 94.007812 86.621094 93.535156 87.597656 92.097656 88.011719 " fill-opacity="1" fill-rule="nonzero"/><path fill="#000000" d="M 170.417969 15.035156 C 171.578125 14.945312 172.441406 15.433594 173.011719 16.417969 C 173.605469 17.453125 172.992188 18.207031 172.328125 18.894531 C 171.824219 19.414062 171.308594 19.96875 170.691406 20.320312 C 169.34375 21.089844 167.839844 20.671875 167.210938 19.460938 C 166.296875 17.707031 166.507812 16.71875 168.074219 15.777344 C 168.785156 15.347656 169.542969 14.980469 170.417969 15.035156 " fill-opacity="1" fill-rule="nonzero"/><path fill="#000000" d="M 180.027344 29.296875 C 180.050781 30.632812 178.46875 32.203125 176.984375 32.3125 C 175.34375 32.433594 173.921875 31.144531 173.953125 29.558594 C 173.984375 27.988281 175.652344 26.390625 177.199219 26.457031 C 178.484375 26.507812 180.003906 28.035156 180.027344 29.296875 " fill-opacity="1" fill-rule="nonzero"/><path fill="#000000" d="M 155.210938 36.015625 C 155.15625 38.140625 153.484375 39.957031 151.625 39.914062 C 149.65625 39.867188 148.351562 38.367188 148.371094 36.179688 C 148.394531 34.078125 150.105469 32.382812 152.089844 32.5 C 153.976562 32.609375 155.265625 34.058594 155.210938 36.015625 " fill-opacity="1" fill-rule="nonzero"/></g></g></g><g mask="url(#f8ac8cda8a)"><g><g clip-path="url(#5049879ccd)"><g clip-path="url(#302b5c3d08)"><path fill="#000000" d="M 51.898438 75.921875 C 50.144531 71.96875 47.503906 68.835938 45.039062 67.644531 C 44.4375 67.351562 43.863281 67.179688 43.296875 67.59375 C 42.722656 68.019531 42.816406 68.601562 42.914062 69.265625 C 43.296875 71.808594 44.746094 73.839844 46.015625 75.960938 C 47.332031 78.152344 47.699219 78.273438 49.957031 77.234375 C 50.605469 76.933594 51.308594 76.699219 51.898438 75.921875 Z M 67.300781 109.523438 C 68.765625 111.871094 69.246094 114.039062 68.492188 116.492188 C 67.660156 119.195312 68.40625 120.007812 71.285156 120.199219 C 73.964844 120.382812 76.285156 119.28125 78.90625 118.351562 C 78.042969 115.222656 80.183594 112.238281 78.976562 108.914062 C 75.105469 109.449219 71.316406 107.9375 67.300781 109.523438 Z M 47.398438 105.304688 C 47.308594 105.023438 47.238281 104.726562 47.117188 104.445312 C 46.992188 104.164062 46.878906 103.839844 46.664062 103.636719 C 43.964844 101.054688 43.96875 98.0625 45.097656 94.765625 C 46.148438 91.707031 45.007812 89.015625 41.894531 86.851562 C 40.789062 88.589844 39.578125 90.269531 38.613281 92.078125 C 37.59375 93.992188 36.671875 95.984375 35.957031 98.023438 C 33.480469 105.082031 34.097656 111.859375 38.152344 118.226562 C 38.839844 119.308594 39.441406 120.566406 41.042969 120.632812 C 41.292969 118.179688 41.292969 118.179688 39.894531 115.941406 C 38.074219 113.035156 38.496094 111.257812 41.457031 109.558594 C 42.445312 108.992188 43.496094 108.535156 44.519531 108.03125 C 45.75 107.425781 46.851562 106.691406 47.398438 105.304688 Z M 62.613281 79.109375 C 63.339844 80.121094 63.949219 81.070312 64.660156 81.929688 C 68.003906 85.953125 68.617188 90.199219 65.9375 94.832031 C 65.324219 95.894531 64.847656 97.097656 64.613281 98.292969 C 64.207031 100.347656 65.613281 102.503906 67.078125 102.054688 C 68.996094 101.46875 70.738281 101.964844 72.5625 102.15625 C 74.152344 102.320312 75.851562 102.347656 76.640625 100.644531 C 77.882812 97.96875 79.992188 96.261719 82.402344 94.738281 C 84.128906 93.644531 84.25 92.9375 83.269531 91.121094 C 80.140625 85.339844 75.507812 81.191406 69.378906 78.824219 C 67.296875 78.019531 65.039062 77.167969 62.613281 79.109375 Z M 41.78125 73.75 C 40.4375 73.195312 39.851562 74.089844 39.199219 74.683594 C 37.046875 76.644531 35.09375 78.785156 33.316406 81.105469 C 28.359375 87.582031 25.738281 94.851562 25.699219 103.015625 C 25.664062 110.574219 28.214844 117.449219 31.46875 124.109375 C 32.144531 125.492188 33.234375 126.644531 34.285156 127.808594 C 37.253906 131.085938 41.171875 132.84375 45.082031 134.484375 C 51.027344 136.972656 57.246094 137.75 63.683594 136.578125 C 67.074219 135.964844 70.378906 135.132812 73.53125 133.757812 C 74.472656 133.347656 75.296875 133.171875 76.09375 133.980469 C 77.628906 135.535156 79.234375 137.023438 80.671875 138.660156 C 81.765625 139.902344 81.542969 140.8125 80.105469 141.664062 C 78.316406 142.722656 76.460938 143.664062 74.675781 144.726562 C 72.117188 146.25 69.539062 147.761719 67.585938 150.039062 C 69.878906 153.222656 70.207031 153.363281 73.089844 151.390625 C 80.863281 146.070312 88.605469 140.703125 96.324219 135.300781 C 98.640625 133.679688 98.609375 133.253906 96.699219 130.554688 C 95.796875 130.527344 95.21875 131.171875 94.527344 131.601562 C 92.410156 132.914062 90.3125 134.269531 88.136719 135.480469 C 84.183594 137.671875 84.046875 137.558594 81.300781 134.058594 C 80.105469 132.535156 79.316406 130.648438 77.671875 129.605469 C 76.53125 129.585938 75.78125 130.179688 74.972656 130.632812 C 69.3125 133.816406 63.101562 135.292969 56.75 135.015625 C 49.472656 134.695312 42.773438 132.3125 37.226562 127.164062 C 34.34375 124.484375 32.101562 121.523438 30.621094 117.898438 C 28.015625 111.527344 27.039062 105.035156 28.089844 98.152344 C 29.445312 89.277344 33.199219 81.84375 40.140625 76.058594 C 40.824219 75.492188 41.738281 75.023438 41.78125 73.75 Z M 43.746094 123.117188 C 51.664062 131.402344 72.027344 127.742188 75.269531 122.902344 C 73.828125 122.496094 72.375 122.757812 70.9375 122.722656 C 66.183594 122.609375 64.378906 120.203125 65.863281 115.675781 C 66.328125 114.257812 66.347656 113.222656 65.332031 111.988281 C 63.8125 110.144531 64.136719 108.554688 66.082031 107.300781 C 67.207031 106.578125 68.394531 105.882812 69.824219 105.890625 C 72.527344 105.90625 75.238281 105.796875 77.929688 105.957031 C 81.027344 106.132812 82.492188 108.09375 82.09375 111.207031 C 81.886719 112.8125 81.65625 114.414062 81.4375 116.019531 C 85.570312 110.136719 85.976562 103.59375 85.457031 96.613281 C 82.589844 97.773438 80.667969 99.25 79.277344 101.628906 C 77.550781 104.585938 74.980469 106.027344 71.378906 104.796875 C 70.207031 104.394531 68.9375 104.566406 67.6875 104.863281 C 65.015625 105.503906 63.875 104.921875 62.710938 102.492188 C 61.15625 99.25 61.859375 96.179688 63.6875 93.355469 C 65.496094 90.554688 65.199219 87.882812 63.703125 85.160156 C 63.304688 84.433594 62.867188 83.703125 62.3125 83.101562 C 60.964844 81.628906 59.871094 80.050781 59.890625 77.816406 C 53.53125 77.851562 48.503906 79.921875 44.574219 84.238281 C 44.601562 84.648438 44.578125 84.765625 44.617188 84.851562 C 44.75 85.128906 44.871094 85.421875 45.0625 85.660156 C 47.921875 89.222656 49.191406 93.023438 47.140625 97.480469 C 46.589844 98.671875 46.886719 99.90625 47.855469 100.929688 C 48.347656 101.453125 48.75 102.074219 49.136719 102.683594 C 50.558594 104.921875 50.390625 106.3125 48.691406 108.265625 C 47.195312 109.980469 45.164062 110.78125 43.207031 111.734375 C 41.957031 112.347656 41.402344 113.304688 42.273438 114.476562 C 44.273438 117.167969 44.796875 120.0625 43.746094 123.117188 Z M 73.171875 128.324219 C 71.871094 128.222656 70.753906 128.871094 69.566406 129.214844 C 59.480469 132.117188 49.867188 131.722656 41.152344 125.148438 C 35.324219 120.753906 32.285156 114.878906 31.90625 107.617188 C 31.535156 100.589844 34.148438 94.472656 37.605469 88.5625 C 39.578125 85.195312 42.421875 82.625 45.1875 79.804688 C 44.695312 78.726562 44.695312 77.558594 43.691406 76.574219 C 41.023438 78.089844 38.925781 80.136719 37.257812 82.46875 C 30.914062 91.351562 28.660156 101.070312 31.355469 111.855469 C 33.519531 120.515625 38.78125 126.800781 46.578125 130.457031 C 54.800781 134.316406 63.390625 132.757812 71.703125 129.855469 C 72.367188 129.625 72.921875 129.0625 73.164062 128.316406 C 73.417969 128.191406 74.089844 128.601562 73.820312 127.867188 C 73.765625 127.726562 73.296875 128.011719 73.171875 128.324219 Z M 78.691406 125.734375 C 80.667969 128.328125 82.371094 131.28125 84.835938 133.984375 C 87.945312 132.789062 90.648438 130.886719 93.378906 129.070312 C 97.90625 126.058594 97.878906 126.019531 100.300781 130.90625 C 101.890625 134.113281 101.8125 134.59375 98.777344 136.753906 C 90.847656 142.398438 82.886719 148.007812 74.925781 153.617188 C 74.164062 154.152344 73.359375 154.644531 72.527344 155.050781 C 70.042969 156.269531 68.992188 156.078125 66.976562 154.128906 C 66.304688 153.480469 65.605469 152.847656 65.015625 152.128906 C 63.625 150.425781 63.707031 149.300781 65.429688 147.898438 C 68.164062 145.671875 70.945312 143.507812 74.125 141.914062 C 75.320312 141.316406 76.511719 140.695312 77.40625 139.675781 C 77.355469 138.542969 76.410156 138.105469 75.832031 137.414062 C 74.992188 136.40625 74.027344 136.117188 72.816406 136.824219 C 68.734375 139.195312 64.054688 139.300781 59.585938 139.886719 C 57.015625 140.226562 54.277344 139.265625 51.617188 138.886719 C 45.96875 138.078125 40.925781 135.789062 36.042969 132.910156 C 32.566406 130.859375 30.113281 127.992188 28.347656 124.570312 C 24.9375 117.957031 22.757812 110.832031 22.777344 103.429688 C 22.800781 95.144531 25.050781 87.300781 30.257812 80.527344 C 32.738281 77.292969 35.539062 74.386719 38.585938 71.722656 C 39.609375 70.832031 40.109375 70.035156 40.152344 68.632812 C 40.269531 64.917969 43.09375 63.484375 46.460938 65.351562 C 49.152344 66.851562 51.316406 69.019531 52.730469 71.699219 C 54.085938 74.273438 55.914062 75.03125 58.714844 74.808594 C 63.730469 74.40625 68.648438 74.855469 73.253906 77.261719 C 79.683594 80.617188 84.25 85.738281 87.296875 92.15625 C 88.769531 95.253906 88.886719 98.769531 88.707031 102.21875 C 88.367188 108.628906 87.019531 114.714844 83.207031 120.070312 C 82.414062 121.183594 81.457031 122.113281 80.554688 123.113281 C 79.871094 123.863281 78.894531 124.40625 78.691406 125.734375 " fill-opacity="1" fill-rule="nonzero"/></g><g clip-path="url(#6e909957f9)"><path fill="#000000" d="M -12.601562 8.269531 C -11.828125 9.628906 -10.988281 9.3125 -10.179688 8.679688 C -7.230469 6.363281 -4.132812 4.289062 -0.742188 2.65625 C -0.324219 2.453125 0.226562 2.175781 0.0234375 1.488281 C -2.171875 1.695312 -10.675781 6.21875 -12.601562 8.269531 Z M 18.523438 27.972656 C 18.78125 26.824219 18.160156 26.332031 17.792969 25.734375 C 14.914062 21.070312 11.160156 17.015625 8.375 12.285156 C 7.054688 10.050781 5.566406 7.953125 3.691406 6.144531 C 2.960938 5.433594 2.257812 4.703125 1.257812 4.894531 C 0.726562 5.449219 0.847656 5.914062 1.101562 6.191406 C 7.226562 12.925781 12.464844 20.328125 17.542969 27.851562 C 17.648438 28.007812 18.105469 27.929688 18.523438 27.972656 Z M 11.734375 39.484375 C 14.851562 41.167969 17.699219 43.324219 20.550781 45.34375 C 23.53125 43.613281 23.683594 43.585938 23.4375 42.058594 C 22.957031 39.097656 22.328125 36.160156 21.6875 33.230469 C 21.417969 32.007812 20.683594 31.207031 19.179688 31.429688 C 18.371094 32.800781 18.878906 34.808594 17.175781 35.78125 C 16.039062 36.054688 15.078125 34.789062 13.726562 35.46875 C 12.847656 36.433594 12.320312 37.769531 11.734375 39.484375 Z M 9.285156 37.074219 C 11.179688 34.953125 11.234375 34.734375 10.132812 32.730469 C 8.425781 29.636719 6.539062 26.648438 4.226562 23.972656 C 0.90625 20.125 -2.378906 16.253906 -5.417969 12.175781 C -6.003906 11.386719 -6.605469 10.488281 -7.675781 10.261719 C -8.96875 11.070312 -8.699219 11.953125 -7.988281 12.90625 C -3.65625 18.738281 -0.0585938 25.054688 4.042969 31.039062 C 5.554688 33.238281 7.230469 35.324219 9.285156 37.074219 Z M 15.347656 32.703125 C 16.605469 31.488281 15.886719 30.574219 15.355469 29.714844 C 14.425781 28.214844 13.371094 26.796875 12.464844 25.285156 C 8.820312 19.207031 4.386719 13.730469 -0.371094 8.515625 C -2.378906 6.316406 -2.910156 6.414062 -4.875 8.851562 C -1.96875 12.082031 0.261719 15.875 3.335938 18.992188 C 6.636719 22.335938 9.429688 26.0625 11.671875 30.179688 C 12.496094 31.695312 13.601562 32.542969 15.347656 32.703125 Z M -1.496094 -1.621094 C -2.234375 -3.703125 -3.0625 -5.480469 -4.4375 -6.914062 C -5.699219 -8.226562 -7.15625 -9.164062 -9.125 -8.621094 C -11.511719 -7.957031 -13.898438 -7.285156 -16.292969 -6.636719 C -17.625 -6.273438 -18.757812 -5.554688 -19.757812 -4.640625 C -21.265625 -3.269531 -21.457031 -1.9375 -20.3125 -0.265625 C -19.078125 1.535156 -17.410156 2.953125 -15.800781 4.398438 C -14.796875 5.300781 -13.683594 5.5 -12.445312 4.558594 C -10.960938 3.433594 -9.257812 2.679688 -7.542969 1.925781 C -5.472656 1.015625 -3.496094 -0.125 -1.496094 -1.621094 Z M -4.84375 -11.011719 C -2.292969 -9.269531 -0.523438 -6.855469 0.671875 -4.066406 C 2.109375 -0.703125 3.925781 2.378906 6.4375 5.046875 C 7.003906 5.648438 7.597656 6.246094 8.066406 6.925781 C 12.890625 13.925781 17.652344 20.972656 22.523438 27.945312 C 24.71875 31.085938 24.734375 34.792969 25.550781 38.289062 C 26.332031 41.613281 26.945312 44.972656 27.625 48.316406 C 27.730469 48.824219 27.871094 49.332031 27.894531 49.847656 C 27.9375 50.785156 27.960938 51.742188 26.863281 52.222656 C 25.917969 52.636719 25.117188 52.574219 24.296875 51.835938 C 21.0625 48.921875 17.425781 46.53125 13.894531 44 C 13.644531 43.820312 13.476562 43.496094 13.207031 43.375 C 5.953125 40.074219 2.410156 33.351562 -1.75 27.207031 C -3.84375 24.117188 -5.867188 20.980469 -7.972656 17.894531 C -9.371094 15.839844 -11.066406 14.046875 -12.828125 12.269531 C -16.109375 8.964844 -18.890625 5.203125 -22.117188 1.820312 C -25.300781 -1.523438 -24.449219 -5.371094 -20.3125 -7.773438 C -16.847656 -9.785156 -12.828125 -10.851562 -8.820312 -11.554688 C -7.507812 -11.78125 -6.105469 -11.761719 -4.84375 -11.011719 " fill-opacity="1" fill-rule="nonzero"/></g><path fill="#000000" d="M 139.152344 65.777344 C 137.683594 65.09375 136.308594 65.464844 134.984375 65.339844 C 134.226562 65.265625 133.414062 65.113281 133.347656 64.234375 C 133.265625 63.128906 134.167969 62.945312 135.039062 62.867188 C 136.566406 62.734375 138.136719 63.109375 139.71875 62.550781 C 139.976562 61.089844 140.222656 59.703125 140.457031 58.359375 C 139.015625 57.515625 137.609375 58.058594 136.308594 57.773438 C 134.472656 57.371094 134.023438 56.828125 134.0625 54.863281 C 136.082031 54.5625 138.074219 56.042969 140.296875 55.011719 C 140.652344 54.148438 141.316406 53.21875 140.910156 51.9375 C 139.570312 51.566406 138.214844 51.335938 137.179688 50.410156 C 136.628906 49.917969 136.046875 49.363281 136.601562 48.558594 C 137.023438 47.957031 137.617188 48.003906 138.265625 48.273438 C 139.085938 48.617188 139.828125 49.402344 140.992188 48.761719 C 141.46875 47.246094 141.066406 46.269531 139.257812 46.042969 C 138.4375 45.9375 137.644531 45.585938 136.828125 45.546875 C 134.25 45.429688 131.90625 43.902344 129.160156 44.246094 C 128.046875 47.222656 127.746094 50.308594 127.179688 53.339844 C 125.839844 60.550781 124.082031 67.679688 123.019531 74.945312 C 122.246094 80.257812 121.261719 85.546875 120.71875 90.878906 C 120.359375 94.367188 119.726562 97.847656 119.863281 101.398438 C 119.917969 102.792969 120.449219 103.628906 121.722656 103.820312 C 123.972656 104.160156 126.242188 104.507812 128.507812 104.523438 C 130.921875 104.539062 131.28125 103.855469 130.875 101.152344 C 129.121094 100.183594 127.039062 100.367188 125.214844 99.617188 C 124.496094 99.316406 123.78125 98.980469 124.023438 98.09375 C 124.246094 97.277344 125.027344 97.089844 125.800781 97.195312 C 126.308594 97.261719 126.804688 97.585938 127.300781 97.566406 C 128.921875 97.511719 130.421875 98.746094 132.097656 98.136719 C 132.460938 97.039062 132.792969 96.082031 132.792969 95.402344 C 131.558594 93.222656 127.941406 95.269531 127.457031 91.949219 C 129.5625 90.960938 131.367188 91.9375 133.183594 92.019531 C 134.542969 90.710938 134.339844 89.027344 134.714844 87.46875 C 132.921875 86.738281 130.710938 87.792969 129.457031 85.730469 C 131.277344 83.425781 133.96875 85.542969 136.066406 84.105469 C 135.929688 82.832031 137.1875 81.621094 136.621094 80.078125 C 135.65625 79.042969 134.367188 79.1875 133.144531 79.011719 C 131.292969 78.75 130.929688 78.210938 130.976562 76.09375 C 133.066406 75.65625 135.175781 77.511719 137.28125 76.183594 C 138.128906 74.792969 138.324219 73.328125 137.820312 71.855469 C 136.449219 71.179688 135.089844 71.105469 133.777344 70.816406 C 132.886719 70.621094 132.304688 69.929688 132.628906 68.949219 C 132.894531 68.140625 133.550781 67.960938 134.398438 68.199219 C 135.085938 68.390625 135.820312 68.4375 136.539062 68.515625 C 138.421875 68.722656 139.203125 67.800781 139.152344 65.777344 Z M 127.171875 107.089844 C 125.070312 107.355469 122.730469 106.808594 120.390625 106.363281 C 117.703125 105.851562 116.945312 104.832031 116.910156 102.113281 C 116.871094 99.414062 117.363281 96.75 117.628906 94.089844 C 119.003906 80.527344 121.214844 67.085938 124.136719 53.757812 C 124.886719 50.335938 125.324219 46.84375 126.191406 43.4375 C 126.953125 40.445312 127.445312 40.191406 130.5625 40.96875 C 133.976562 41.824219 137.398438 42.652344 140.8125 43.5 C 143.714844 44.21875 144.359375 44.828125 144.171875 47.761719 C 143.878906 52.394531 143.480469 57.035156 142.839844 61.636719 C 142.027344 67.457031 140.808594 73.222656 139.984375 79.042969 C 139.300781 83.890625 137.496094 88.429688 136.496094 93.183594 C 135.773438 96.617188 134.609375 99.941406 134.21875 103.464844 C 133.867188 106.621094 133.273438 107 129.980469 107.085938 C 129.148438 107.109375 128.316406 107.089844 127.171875 107.089844 " fill-opacity="1" fill-rule="nonzero"/><g clip-path="url(#afd5429076)"><path fill="#000000" d="M 136.320312 128.160156 C 139.230469 125.90625 140.941406 123.722656 142.734375 121.582031 C 150.175781 112.664062 157.734375 103.847656 164.730469 94.570312 C 168.296875 89.84375 171.460938 84.847656 174.75 79.933594 C 175.976562 78.105469 175.875 77.722656 174.273438 76.214844 C 173.371094 75.371094 172.34375 74.648438 171.34375 73.90625 C 169.109375 72.253906 168.671875 72.332031 167.164062 74.546875 C 165.691406 76.703125 165.734375 77.015625 167.710938 78.582031 C 168.117188 78.90625 168.550781 79.203125 168.910156 79.570312 C 169.484375 80.152344 170.246094 80.753906 169.425781 81.660156 C 168.761719 82.394531 168.101562 81.878906 167.460938 81.554688 C 166.195312 80.917969 165.386719 79.507812 163.613281 79.324219 C 162.902344 80.5 161.398438 81.109375 161.246094 82.179688 C 161.605469 85 165.558594 85.140625 164.699219 88.339844 C 162.621094 88.332031 161.601562 86.882812 160.289062 85.953125 C 158.835938 84.925781 157.710938 85.382812 157.421875 87.097656 C 157.277344 87.964844 157.433594 88.71875 158.070312 89.390625 C 158.691406 90.054688 159.582031 90.535156 159.769531 91.75 C 157.726562 94.402344 156.636719 90.507812 154.699219 90.996094 C 153.332031 91.828125 152.582031 93.402344 151.855469 94.707031 C 152.054688 97.160156 155.574219 96.558594 155.46875 99.105469 C 154.285156 99.976562 153.257812 99.742188 152.226562 99.082031 C 151.613281 98.6875 151.003906 98.292969 150.367188 97.941406 C 149.863281 97.660156 149.339844 97.710938 148.972656 98.179688 C 148.609375 98.648438 148.667969 99.214844 149.078125 99.585938 C 149.765625 100.210938 150.554688 100.71875 151.273438 101.308594 C 151.914062 101.839844 152.707031 102.410156 152.019531 103.355469 C 151.332031 104.292969 150.527344 103.667969 149.804688 103.308594 C 148.714844 102.765625 147.929688 101.632812 146.492188 101.625 C 145.265625 102.578125 144.257812 103.714844 143.800781 105.148438 C 144.214844 107.105469 147.011719 107.445312 146.679688 109.707031 C 145.699219 110.511719 144.890625 110.183594 144.066406 109.601562 C 143.25 109.027344 142.796875 107.898438 141.585938 107.917969 C 139.425781 110.515625 139.433594 110.503906 141.515625 112.734375 C 142.191406 113.457031 143.269531 113.996094 142.824219 115.433594 C 140.40625 116.828125 139.714844 113.644531 137.808594 113.402344 C 137.449219 113.714844 137.023438 114.011719 136.695312 114.390625 C 134.96875 116.367188 135.125 117.371094 137.347656 118.878906 C 137.996094 119.320312 138.988281 119.382812 139.117188 120.449219 C 138.4375 121.800781 137.570312 122.359375 136.195312 121.222656 C 135.640625 120.761719 135.03125 120.347656 134.402344 119.988281 C 133.195312 119.292969 132.183594 119.746094 131.855469 121.097656 C 131.582031 122.203125 131.964844 123.09375 132.726562 123.929688 C 133.914062 125.234375 135.015625 126.617188 136.320312 128.160156 Z M 179.273438 77.863281 C 179.300781 78.546875 178.832031 78.984375 178.507812 79.515625 C 172.847656 88.8125 166.488281 97.601562 159.496094 105.949219 C 153.585938 113.007812 147.722656 120.101562 141.835938 127.183594 C 141.703125 127.34375 141.550781 127.488281 141.414062 127.640625 C 137.789062 131.625 136.769531 131.65625 132.972656 127.875 C 131.722656 126.628906 130.476562 125.378906 129.28125 124.082031 C 127.785156 122.453125 127.679688 122.089844 128.941406 120.34375 C 133.976562 113.390625 139.074219 106.480469 144.175781 99.578125 C 146.140625 96.914062 148.34375 94.410156 150.164062 91.660156 C 153.722656 86.285156 158.152344 81.632812 162.175781 76.644531 C 163.734375 74.710938 164.933594 72.503906 166.71875 70.746094 C 168.335938 69.152344 169.097656 68.855469 170.777344 70.027344 C 173.402344 71.855469 176.121094 73.601562 178.3125 75.992188 C 178.8125 76.53125 179.320312 77.050781 179.273438 77.863281 " fill-opacity="1" fill-rule="nonzero"/></g><path fill="#000000" d="M 48.472656 17.316406 C 54.035156 21.039062 58.507812 20.109375 63.304688 14.363281 C 58.144531 14.964844 53.753906 16.632812 48.472656 17.316406 Z M 90.734375 32.5 C 90.824219 29.332031 90.636719 26.15625 88.28125 23.550781 C 83.847656 18.640625 75.988281 17.488281 69.75 23.5 C 68.78125 24.433594 67.957031 24.898438 66.660156 25.152344 C 63.039062 25.859375 60.355469 27.835938 59.636719 31.675781 C 59.296875 33.496094 58.734375 35.285156 58.820312 37.183594 C 59.003906 41.234375 60.34375 44.597656 63.984375 46.851562 C 65.796875 47.972656 67.777344 48.421875 69.761719 49.019531 C 77.917969 51.460938 92.371094 43.867188 90.734375 32.5 Z M 64.878906 17.839844 C 63.535156 18.445312 62.617188 19.277344 61.605469 19.984375 C 57.042969 23.1875 53.246094 23.253906 48.1875 20.652344 C 47.152344 20.121094 46.355469 19.285156 45.777344 18.273438 C 44.738281 16.453125 45.363281 14.820312 47.429688 14.636719 C 51.59375 14.273438 55.578125 13.167969 59.589844 12.132812 C 59.886719 12.054688 60.21875 11.980469 60.515625 12.027344 C 63.644531 12.527344 65.929688 11.636719 66.8125 8.328125 C 66.855469 8.179688 67.136719 8.09375 67.433594 7.898438 C 69.261719 8.382812 68.914062 9.777344 68.566406 11.054688 C 67.808594 13.820312 68.117188 16.601562 68.300781 19.386719 C 68.3125 19.539062 68.542969 19.679688 68.789062 19.960938 C 71.144531 18.875 73.34375 17.367188 76.027344 16.78125 C 84.328125 14.957031 92.609375 20.320312 93.628906 28.71875 C 94.164062 33.121094 94.164062 37.59375 91.980469 41.785156 C 90.625 44.382812 88.519531 46.128906 86.253906 47.792969 C 79.625 52.664062 72.429688 53.871094 64.84375 50.542969 C 60.050781 48.445312 55.824219 44.058594 56.292969 38.027344 C 56.503906 35.355469 56.078125 32.628906 57.105469 30.039062 C 58.34375 26.929688 60.230469 24.464844 63.515625 23.25 C 65.910156 22.355469 66.035156 22.039062 65.460938 19.570312 C 65.34375 19.074219 65.132812 18.59375 64.878906 17.839844 " fill-opacity="1" fill-rule="nonzero"/><g clip-path="url(#0c7e3d6dfd)"><path fill="#000000" d="M 124.90625 9.074219 C 125.734375 8.878906 126.105469 8.492188 126.195312 7.96875 C 126.429688 6.625 126.152344 5.324219 125.890625 3.992188 C 125.160156 0.265625 127.65625 -2.085938 131.316406 -1.226562 C 132.019531 -1.0625 132.695312 -0.78125 133.378906 -0.535156 C 134.882812 0.0117188 136.570312 0.496094 137.734375 -0.8125 C 138.773438 -1.988281 138.179688 -3.566406 137.644531 -4.941406 C 135.140625 -11.386719 129.78125 -14.847656 123.964844 -17.734375 C 122.355469 -18.53125 120.402344 -17.539062 119.59375 -15.855469 C 119.058594 -14.746094 118.789062 -13.542969 118.714844 -12.269531 C 118.328125 -5.835938 119.691406 0.25 122.191406 6.132812 C 122.742188 7.433594 123.632812 8.375 124.90625 9.074219 Z M 129.660156 1.152344 C 128.242188 2.765625 128.714844 4.261719 129.085938 5.765625 C 129.414062 7.09375 129.558594 8.390625 128.65625 9.621094 C 126.378906 12.726562 122.300781 12.453125 120.597656 8.867188 C 118.503906 4.460938 117.070312 -0.191406 116.34375 -5.03125 C 115.882812 -8.089844 115.566406 -11.117188 116.253906 -14.257812 C 117.539062 -20.136719 122.414062 -22.359375 127.460938 -19.128906 C 131.847656 -16.320312 136.0625 -13.304688 138.894531 -8.796875 C 140.285156 -6.582031 141.324219 -4.214844 141.214844 -1.503906 C 141.125 0.671875 140.0625 1.878906 137.941406 2.382812 C 136.082031 2.820312 134.285156 2.867188 132.492188 2.066406 C 131.652344 1.695312 130.734375 1.492188 129.660156 1.152344 " fill-opacity="1" fill-rule="nonzero"/></g><g clip-path="url(#4b36de80b8)"><path fill="#000000" d="M 29.976562 -1.203125 C 29.914062 -0.285156 29.304688 0.285156 28.640625 0.785156 C 26.070312 2.726562 23.886719 5.03125 21.886719 7.550781 C 21.191406 8.425781 20.257812 9.980469 18.929688 8.734375 C 17.675781 7.5625 19.035156 6.457031 19.828125 5.628906 C 22.179688 3.164062 24.632812 0.792969 27.050781 -1.609375 C 27.492188 -2.050781 27.964844 -2.464844 28.632812 -2.492188 C 29.515625 -2.527344 29.984375 -2.105469 29.976562 -1.203125 " fill-opacity="1" fill-rule="nonzero"/></g><path fill="#000000" d="M 9.265625 97.828125 C 9.121094 98.390625 8.683594 98.925781 7.800781 98.683594 C 6.921875 98.4375 6.039062 98.210938 5.296875 97.566406 C 3.878906 96.335938 2.96875 94.710938 1.78125 93.300781 C 1.261719 92.683594 1.324219 91.941406 1.984375 91.386719 C 2.648438 90.832031 3.417969 90.902344 3.882812 91.5625 C 5.246094 93.519531 6.835938 95.21875 8.859375 96.503906 C 9.210938 96.726562 9.347656 97.148438 9.265625 97.828125 " fill-opacity="1" fill-rule="nonzero"/><path fill="#000000" d="M 65.5 37.609375 C 65.589844 35.113281 66.433594 33.488281 66.703125 31.71875 C 65.785156 31.097656 64.953125 31.140625 64.019531 31.824219 C 63.957031 33.617188 64.339844 35.328125 65.5 37.609375 Z M 66.238281 43.625 C 64.65625 42.90625 63.882812 41.476562 63.25 39.921875 C 62.148438 37.21875 61.367188 34.445312 61.332031 31.503906 C 61.320312 30.554688 61.289062 29.316406 62.347656 29.132812 C 64.269531 28.796875 66.171875 28.042969 68.160156 28.363281 C 69.789062 28.621094 70.605469 29.792969 69.882812 31.316406 C 68.40625 34.417969 67.960938 37.625 68.097656 40.992188 C 68.148438 42.234375 67.671875 43.210938 66.238281 43.625 " fill-opacity="1" fill-rule="nonzero"/></g></g></g><g clip-path="url(#5a0a65f123)"><g clip-path="url(#9701d8288d)"><g clip-path="url(#0a53e63663)"><path fill="#e5d9cd" d="M 539.152344 74.714844 L 531.792969 74.714844 L 531.792969 32.585938 L 116.191406 32.585938 L 116.191406 74.714844 L 108.832031 74.714844 C 78.871094 74.714844 54.59375 102.652344 54.59375 137.113281 L 54.59375 150.824219 C 54.59375 185.285156 78.878906 213.21875 108.832031 213.21875 L 116.191406 213.21875 L 116.191406 255.347656 L 531.792969 255.347656 L 531.792969 213.21875 L 539.152344 213.21875 C 569.109375 213.21875 593.390625 185.285156 593.390625 150.824219 L 593.390625 137.113281 C 593.394531 102.652344 569.109375 74.714844 539.152344 74.714844 Z M 539.152344 74.714844 " fill-opacity="1" fill-rule="nonzero"/></g></g></g><g clip-path="url(#4cb540e0db)"><g clip-path="url(#694f3d6327)"><g clip-path="url(#5d5c2861d0)"><path stroke-linecap="butt" transform="matrix(0.75, 0, 0, 0.75, 54.603558, 32.537217)" fill="none" stroke-linejoin="miter" d="M 0.00254756 31.997257 L 0.00254756 265.22125 C 0.00254756 282.893127 14.325465 297.221254 31.997342 297.221254 L 686.377604 297.221254 C 704.04948 297.221254 718.372398 282.893127 718.372398 265.22125 L 718.372398 31.997257 C 718.372398 14.32538 704.04948 0.00246117 686.377604 0.00246117 L 31.997342 0.00246117 C 14.325465 0.00246117 0.00254756 14.32538 0.00254756 31.997257 Z M 0.00254756 31.997257 " stroke="#5a2c1e" stroke-width="4" stroke-opacity="1" stroke-miterlimit="4"/></g></g></g></svg>